SplineFontDB: 3.0
FontName: Untitled1
FullName: Untitled1
FamilyName: Untitled1
Weight: Regular
Copyright: Copyright (c) 2019, Jack
UComments: "2019-8-23: Created with FontForge (http://fontforge.org)"
Version: 001.000
ItalicAngle: 0
UnderlinePosition: -1020
UnderlineWidth: 178
Ascent: 1610
Descent: 390
InvalidEm: 0
LayerCount: 2
Layer: 0 0 "Back" 1
Layer: 1 0 "Fore" 0
XUID: [1021 647 -312734098 29385]
StyleMap: 0x0000
FSType: 0
OS2Version: 0
OS2_WeightWidthSlopeOnly: 0
OS2_UseTypoMetrics: 1
CreationTime: 1566577596
ModificationTime: 1566941469
OS2TypoAscent: 0
OS2TypoAOffset: 1
OS2TypoDescent: 0
OS2TypoDOffset: 1
OS2TypoLinegap: 180
OS2WinAscent: 0
OS2WinAOffset: 1
OS2WinDescent: 0
OS2WinDOffset: 1
HheadAscent: 0
HheadAOffset: 1
HheadDescent: 0
HheadDOffset: 1
Lookup: 6 0 0 "semivowels" { "semivowels contextual 0"  "semivowels contextual 1"  } ['liga' ('latn' <'dflt' > 'DFLT' <'dflt' > ) ]
Lookup: 1 0 0 "Single Substitution lookup 1" { "Single Substitution lookup 1 subtable"  } []
Lookup: 1 0 0 "Single Substitution lookup 2" { "Single Substitution lookup 2 subtable"  } []
Lookup: 4 0 1 "diphthongs" { "diphthongs subtable"  } ['liga' ('latn' <'dflt' > 'DFLT' <'dflt' > ) ]

StartChar: my
Encoding: 0 60224 1
Width: 1200
Flags: W
HStem: -10.4111 135.592<425.491 775.377> 415 169<285.275 909.788> 875.456 136.568<424.736 773.73>
VStem: 84.1279 200.46<270.731 415 584 726.922> 910.566 201.332<268.874 415 584 721.388>
AnchorPoint: "Above" 600 0 basechar 0
LayerCount: 2
Fore
SplineSet
601.083984375 1012.02441406 m 0
 856.543945312 1012.02441406 1009.26464844 882.396484375 1076.04785156 707.036132812 c 0
 1099.94824219 644.28125 1111.8984375 574.20703125 1111.8984375 496.819335938 c 0
 1111.8984375 256.2734375 1003.06640625 95.4560546875 815.114257812 25.193359375 c 0
 751.6171875 1.45703125 680.274414062 -10.4111328125 601.083984375 -10.4111328125 c 0
 344.036132812 -10.4111328125 186.346679688 110.135742188 118.978515625 286.11328125 c 0
 95.078125 348.544921875 84.1279296875 418.779296875 84.1279296875 496.819335938 c 0
 84.1279296875 737.561523438 197.551757812 905.125 385.446289062 975.931640625 c 0
 449.298828125 999.994140625 521.178710938 1012.02441406 601.083984375 1012.02441406 c 0
284.588157875 415 m 1
 305.643604373 241.116681689 400.237165892 125.180664062 601.083984375 125.180664062 c 0
 800.032244903 125.180664062 890.469839782 241.91297815 910.565957544 415 c 1
 284.588157875 415 l 1
909.788077057 584 m 1
 888.264365019 755.644989004 797.912639786 875.456054688 601.083984375 875.456054688 c 0
 399.130285471 875.456054688 307.19093306 755.223130978 285.274882232 584 c 1
 909.788077057 584 l 1
EndSplineSet
Substitution2: "Single Substitution lookup 62 subtable" my.right
Substitution2: "Single Substitution lookup 38 subtable" my.left
Substitution2: "Single Substitution lookup 30 subtable" my.left
Substitution2: "Single Substitution lookup 25 subtable" my.left
Substitution2: "Single Substitution lookup 17 subtable" my.left
EndChar

StartChar: py
Encoding: 1 60225 2
Width: 1200
Flags: W
HStem: -14 138<479.248 893.821> 428 158<281.782 960> 873 139<478.199 906.121>
AnchorPoint: "Above" 600 0 basechar 0
LayerCount: 2
Fore
SplineSet
1120.51269531 142 m 1
 1016.53080324 39.674243123 850.839823584 -14 647.075195312 -14 c 0
 387.41747502 -14 207.69411922 103.483509451 126.924804688 286 c 0
 98.30859375 350.666992188 84 422.333007812 84 505 c 0
 84 764.4765625 230.696289062 904.119140625 428.03125 973 c 0
 502.518554688 999 588.158203125 1012 684.950195312 1012 c 0
 869.096679688 1012 1001.33398438 962.399414062 1105.36230469 880 c 1
 1046.02539062 816 l 2
 1033.31738281 802.16015625 1023.33886719 793 998.049804688 793 c 0
 985.424804688 793 971.537109375 797.166992188 956.387695312 805.5 c 0
 888.508789062 842.834960938 810.888671875 873 698.837890625 873 c 0
 482.441803112 873 318.994130941 775.497521672 281.781832243 586 c 1
 960 586 l 1
 960 428 l 1
 279.413672117 428 l 1
 311.154561916 232.977683774 473.777913735 124 687.474609375 124 c 0
 817.295176518 124 895.239870336 159.961063408 968.380859375 208.5 c 0
 983.952148438 218.833007812 999.3125 224 1014.46289062 224 c 0
 1032.97949219 224 1047.28710938 218.333007812 1057.38769531 207 c 2
 1120.51269531 142 l 1
EndSplineSet
Substitution2: "Single Substitution lookup 62 subtable" py.right
Substitution2: "Single Substitution lookup 26 subtable" py.left
Substitution2: "Single Substitution lookup 13 subtable" py.left
EndChar

StartChar: by
Encoding: 2 60226 3
Width: 1200
Flags: W
HStem: -14 139<298.392 727.457> 419 158<244.513 923.897> 874 138<310.692 728.028>
VStem: 924.04 196.472<305.206 419 577 689.773>
AnchorPoint: "Above" 600 0 basechar 0
LayerCount: 2
Fore
SplineSet
84 856 m 1
 187.981445312 958.326171875 353.672851562 1012 557.4375 1012 c 0
 817.095703125 1012 996.818359375 894.516601562 1077.58789062 712 c 0
 1106.20410156 647.333007812 1120.51269531 585.666992188 1120.51269531 503 c 0
 1120.51269531 243.5234375 973.81640625 93.880859375 776.481445312 25 c 0
 701.994140625 -1 616.354492188 -14 519.5625 -14 c 0
 335.416015625 -14 203.178710938 35.6005859375 99.150390625 118 c 1
 158.487304688 182 l 2
 171.1953125 195.83984375 181.173828125 205 206.462890625 205 c 0
 219.087890625 205 232.975585938 200.833007812 248.125 192.5 c 0
 316.00390625 155.165039062 393.624023438 125 505.674804688 125 c 0
 724.719698309 125 889.512008327 224.90405422 924.040483246 419 c 1
 244.512695312 419 l 1
 244.512695312 577 l 1
 923.896979994 577 l 1
 889.438551039 767.628191533 728.164305591 874 517.038085938 874 c 0
 387.217773438 874 309.272460938 838.0390625 236.131835938 789.5 c 0
 220.560546875 779.166992188 205.200195312 774 190.049804688 774 c 0
 171.533203125 774 157.225585938 779.666992188 147.125 791 c 2
 84 856 l 1
EndSplineSet
Substitution2: "Single Substitution lookup 62 subtable" by.right
Substitution2: "Single Substitution lookup 34 subtable" by.left
Substitution2: "Single Substitution lookup 21 subtable" by.left
EndChar

StartChar: fy
Encoding: 3 60227 4
Width: 1200
Flags: W
VStem: 83.9238 164<360.335 785.315> 527.552 154<146.724 818.25> 953.332 158.296<345.11 782.737>
AnchorPoint: "Above" 600 0 basechar 0
LayerCount: 2
Fore
SplineSet
956.8671875 1013.75 m 1
 1060.58398438 905.772460938 1111.62792969 738.1875 1111.62792969 545 c 0
 1111.62792969 302.932617188 1005.60742188 115.192382812 817.704101562 30 c 0
 755.208984375 1.666015625 684.017578125 -10.5 604.127929688 -10.5 c 0
 436.94921875 -10.5 319.563476562 54.77734375 242.206054688 141.875 c 0
 149.631835938 246.109375 83.923828125 397.14453125 83.923828125 582.5 c 0
 83.923828125 759.370117188 148.016601562 906.07421875 230.489257812 1012.75 c 1
 317.0078125 954 l 2
 331.022460938 940.817382812 339.235351562 930.827148438 339.235351562 906.5 c 0
 339.235351562 871.466796875 315.229492188 843.1015625 300.579101562 809.625 c 0
 276.734375 755.138671875 247.923828125 678.034179688 247.923828125 596.25 c 0
 247.923828125 397.432784432 324.541030627 188.145962477 527.551757812 146.462662857 c 1
 527.551757812 818.25 l 1
 681.551757812 818.25 l 1
 681.551757812 146.723648561 l 1
 877.882428401 188.048024626 953.33203125 388.274318812 953.33203125 579 c 0
 953.33203125 703.744140625 918.3203125 782.022460938 869.669921875 857.125 c 0
 859.684570312 872.541015625 854.69140625 887.75 854.69140625 902.75 c 0
 854.69140625 921.083984375 860.16796875 935.25 871.120117188 945.25 c 2
 956.8671875 1013.75 l 1
EndSplineSet
Substitution2: "Single Substitution lookup 62 subtable" fy.right
Substitution2: "Single Substitution lookup 27 subtable" fy.left
Substitution2: "Single Substitution lookup 14 subtable" fy.left
EndChar

StartChar: vy
Encoding: 4 60228 5
Width: 1200
Flags: W
VStem: 83.9238 158.296<220.513 658.14> 514 154<185 856.526> 947.628 164<217.935 642.915>
AnchorPoint: "Above" 600 0 basechar 0
LayerCount: 2
Fore
SplineSet
238.684570312 -10.5 m 1
 134.967773438 97.4775390625 83.923828125 265.0625 83.923828125 458.25 c 0
 83.923828125 700.317382812 189.944335938 888.057617188 377.84765625 973.25 c 0
 440.342773438 1001.58398438 511.534179688 1013.75 591.423828125 1013.75 c 0
 758.602539062 1013.75 875.98828125 948.47265625 953.345703125 861.375 c 0
 1045.91992188 757.140625 1111.62792969 606.10546875 1111.62792969 420.75 c 0
 1111.62792969 243.879882812 1047.53515625 97.17578125 965.0625 -9.5 c 1
 878.543945312 49.25 l 2
 864.529296875 62.4326171875 856.31640625 72.4228515625 856.31640625 96.75 c 0
 856.31640625 131.783203125 880.322265625 160.1484375 894.97265625 193.625 c 0
 918.817382812 248.111328125 947.627929688 325.215820312 947.627929688 407 c 0
 947.627929688 605.817215568 871.010727186 815.104037524 668 856.787337143 c 1
 668 185 l 1
 514 185 l 1
 514 856.526351439 l 1
 317.669329411 815.201975373 242.219726562 614.975681188 242.219726562 424.25 c 0
 242.219726562 299.505859375 277.231445312 221.227539062 325.881835938 146.125 c 0
 335.8671875 130.708984375 340.860351562 115.5 340.860351562 100.5 c 0
 340.860351562 82.166015625 335.383789062 68 324.431640625 58 c 2
 238.684570312 -10.5 l 1
EndSplineSet
Substitution2: "Single Substitution lookup 62 subtable" vy.right
Substitution2: "Single Substitution lookup 35 subtable" vy.left
Substitution2: "Single Substitution lookup 22 subtable" vy.left
EndChar

StartChar: ky
Encoding: 5 60229 6
Width: 1200
Flags: W
AnchorPoint: "Above" 600 0 basechar 0
LayerCount: 2
Fore
SplineSet
1099 13.5 m 1
 86 426.5 l 1
 86 586.5 l 1
 1099 999.5 l 1
 1099 854.5 l 2
 1099 839.833007812 1095.33300781 827.833007812 1088 818.5 c 0
 1080.66699219 809.166992188 1072 802.833007812 1062 799.5 c 2
 410 542.5 l 2
 385.333007812 534.5 361.333007812 527.5 338 521.5 c 0
 314.666992188 515.5 291.333007812 509.833007812 268 504.5 c 1
 291.333007812 499.166992188 314.666992188 493.5 338 487.5 c 0
 361.333007812 481.5 385.333007812 474.166992188 410 465.5 c 2
 1062 205.5 l 2
 1072.66699219 201.5 1081.5 194.833007812 1088.5 185.5 c 0
 1095.5 176.166992188 1099 165.166992188 1099 152.5 c 2
 1099 13.5 l 1
EndSplineSet
Substitution2: "Single Substitution lookup 62 subtable" ky.right
Substitution2: "Single Substitution lookup 29 subtable" ky.left
Substitution2: "Single Substitution lookup 16 subtable" ky.left
EndChar

StartChar: cy
Encoding: 6 60230 7
Width: 1200
Flags: W
HStem: 0 21G<495.185 701.714> 855 145<306.461 899.206>
AnchorPoint: "Above" 600 0 basechar 0
LayerCount: 2
Fore
SplineSet
306.460566131 855 m 1
 556.330078125 324 l 2
 565.690429688 299.333007812 573.879882812 275.333007812 580.900390625 252 c 0
 587.919921875 228.666992188 594.549804688 205.333007812 600.790039062 182 c 1
 607.030273438 205.333007812 613.66015625 228.666992188 620.6796875 252 c 0
 627.700195312 275.333007812 636.280273438 299.333007812 646.419921875 324 c 2
 899.20599967 855 l 1
 306.460566131 855 l 1
1175.25976562 1000 m 1
 692.049804688 0 l 1
 504.849609375 0 l 1
 21.6396484375 1000 l 1
 1175.25976562 1000 l 1
EndSplineSet
Substitution2: "Single Substitution lookup 62 subtable" cy.right
Substitution2: "Single Substitution lookup 39 subtable" cy.left
EndChar

StartChar: xy
Encoding: 7 60231 8
Width: 1200
Flags: W
HStem: 0 21G<494.457 700.103>
AnchorPoint: "Above" 600 0 basechar 0
LayerCount: 2
Fore
SplineSet
1171.625 1000 m 1
 690.48046875 0 l 1
 504.080078125 0 l 1
 22.9345703125 1000 l 1
 191.860351562 1000 l 2
 208.946289062 1000 222.926757812 996.333007812 233.799804688 989 c 0
 244.672851562 981.666992188 252.051757812 973 255.934570312 963 c 2
 555.33984375 324 l 2
 564.66015625 299.333007812 572.815429688 275.333007812 579.8046875 252 c 0
 586.794921875 228.666992188 593.396484375 205.333007812 599.610351562 182 c 1
 605.823242188 205.333007812 612.424804688 228.666992188 619.415039062 252 c 0
 626.405273438 275.333007812 634.948242188 299.333007812 645.044921875 324 c 2
 947.9453125 963 l 2
 952.60546875 973.666992188 960.372070312 982.5 971.245117188 989.5 c 0
 982.118164062 996.5 994.93359375 1000 1009.69042969 1000 c 2
 1171.625 1000 l 1
EndSplineSet
Substitution2: "Single Substitution lookup 62 subtable" xy.right
EndChar

StartChar: iy
Encoding: 8 60232 9
Width: 1200
VWidth: 4000
Flags: W
AnchorPoint: "Above" 599 0 basechar 0
LayerCount: 2
Fore
SplineSet
918.540039062 -0.1796875 m 1
 999.240234375 -0.1796875 l 1
 1099 -0.1796875 l 1
 1099 1000 l 1
 100 1000 l 1
 100 827.01953125 l 1
 918.540039062 827.01953125 l 1
 918.540039062 169.5 l 1
 100 169.5 l 1
 100 -0.1796875 l 1
 918.540039062 -0.1796875 l 1
EndSplineSet
Substitution2: "Single Substitution lookup 62 subtable" iy.right
EndChar

StartChar: ry
Encoding: 9 60233 10
Width: 1200
Flags: W
HStem: 0 21G<16.8301 217.287 950.546 1166.33>
AnchorPoint: "Above" 600 0 basechar 0
LayerCount: 2
Fore
SplineSet
1166.33007812 0 m 1
 959.419921875 0 l 2
 941.672851562 0 927.758789062 3.8330078125 917.674804688 11.5 c 0
 907.591796875 19.1669921875 899.323242188 27.6669921875 892.870117188 37 c 2
 584.3203125 431 l 1
 581.09375 421.666992188 577.665039062 412.5 574.03515625 403.5 c 0
 570.405273438 394.5 565.36328125 386.333007812 558.91015625 379 c 2
 273.349609375 37 l 2
 265.283203125 27.6669921875 256.611328125 19.1669921875 247.334960938 11.5 c 0
 238.05859375 3.8330078125 225.353515625 0 209.219726562 0 c 2
 16.830078125 0 l 1
 446.379882812 517 l 1
 33.76953125 1000 l 1
 240.6796875 1000 l 2
 258.426757812 1000 271.333007812 997.666992188 279.400390625 993 c 0
 287.466796875 988.333007812 294.7265625 981.666992188 301.1796875 973 c 2
 602.469726562 603 l 1
 608.922851562 622.333007812 619.006835938 641 632.719726562 659 c 2
 896.5 969 l 2
 903.759765625 978.333007812 911.625 985.833007812 920.094726562 991.5 c 0
 928.565429688 997.166992188 938.849609375 1000 950.950195312 1000 c 2
 1149.38964844 1000 l 1
 736.780273438 526 l 1
 1166.33007812 0 l 1
EndSplineSet
Substitution2: "Single Substitution lookup 62 subtable" ry.right
Substitution2: "Single Substitution lookup 52 subtable" ry.left
Substitution2: "Single Substitution lookup 50 subtable" ry.left
Substitution2: "Single Substitution lookup 48 subtable" ry.left
Substitution2: "Single Substitution lookup 45 subtable" ry.left
Substitution2: "Single Substitution lookup 43 subtable" ry.left
Substitution2: "Single Substitution lookup 40 subtable" ry.left
Substitution2: "Single Substitution lookup 33 subtable" ry.left
Substitution2: "Single Substitution lookup 20 subtable" ry.left
Substitution2: "Single Substitution lookup 12 subtable" ry.left
Substitution2: "Single Substitution lookup 10 subtable" ry.left
Substitution2: "Single Substitution lookup 8 subtable" ry.left
Substitution2: "Single Substitution lookup 6 subtable" ry.left
EndChar

StartChar: ebu
Encoding: 10 60234 11
Width: 1200
VWidth: 0
Flags: W
HStem: 446 180<100 1099>
AnchorPoint: "Above" 600 0 basechar 0
LayerCount: 2
Fore
SplineSet
100 626 m 1
 1099 626 l 1
 1099 446 l 1
 100 446 l 1
 100 626 l 1
EndSplineSet
Substitution2: "Single Substitution lookup 60 subtable" ebu.right
Substitution2: "Single Substitution lookup 58 subtable" ebu.center
Substitution2: "Single Substitution lookup 56 subtable" ebu.left
Substitution2: "Single Substitution lookup 54 subtable" ebu.center
EndChar

StartChar: obu
Encoding: 11 60235 12
Width: 1200
VWidth: 0
Flags: W
HStem: 1 21G<510 700>
VStem: 510 190<1 1000>
AnchorPoint: "Above" 600 0 basechar 0
LayerCount: 2
Fore
SplineSet
700 1000 m 1
 700 1 l 1
 510 1 l 1
 510 1000 l 1
 700 1000 l 1
EndSplineSet
Substitution2: "Single Substitution lookup 60 subtable" obu.right
Substitution2: "Single Substitution lookup 58 subtable" obu.center
Substitution2: "Single Substitution lookup 56 subtable" obu.left
Substitution2: "Single Substitution lookup 54 subtable" obu.center
EndChar

StartChar: ibu
Encoding: 12 60236 13
Width: 1200
VWidth: 0
Flags: W
HStem: 256 170<100 1099> 606 170<100 1099>
AnchorPoint: "Above" 600 0 basechar 0
LayerCount: 2
Fore
SplineSet
100 426 m 1
 1099 426 l 1
 1099 256 l 1
 100 256 l 1
 100 426 l 1
100 776 m 1
 1099 776 l 1
 1099 606 l 1
 100 606 l 1
 100 776 l 1
EndSplineSet
Substitution2: "Single Substitution lookup 60 subtable" ibu.right
Substitution2: "Single Substitution lookup 58 subtable" ibu.center
Substitution2: "Single Substitution lookup 56 subtable" ibu.left
Substitution2: "Single Substitution lookup 54 subtable" ibu.center
Substitution2: "Single Substitution lookup 1 subtable" iy
EndChar

StartChar: ubu
Encoding: 13 60237 14
Width: 1200
VWidth: 0
Flags: W
HStem: 0.5 21G<330 510 690 870>
VStem: 330 180<0.5 999.5> 690 180<0.5 999.5>
AnchorPoint: "Above" 600 0 basechar 0
LayerCount: 2
Fore
SplineSet
510 999.5 m 1
 510 0.5 l 1
 330 0.5 l 1
 330 999.5 l 1
 510 999.5 l 1
870 999.5 m 1
 870 0.5 l 1
 690 0.5 l 1
 690 999.5 l 1
 870 999.5 l 1
EndSplineSet
Substitution2: "Single Substitution lookup 60 subtable" ubu.right
Substitution2: "Single Substitution lookup 58 subtable" ubu.center
Substitution2: "Single Substitution lookup 56 subtable" ubu.left
Substitution2: "Single Substitution lookup 54 subtable" ubu.center
Substitution2: "Single Substitution lookup 2 subtable" uy
EndChar

StartChar: abu
Encoding: 14 60238 15
Width: 1200
VWidth: 0
Flags: W
HStem: 330.68 347.761<484.281 723.998>
VStem: 420.6 367.08<393.72 615.4>
AnchorPoint: "Above" 600 0 basechar 0
LayerCount: 2
Fore
SplineSet
420.599609375 504.559570312 m 0
 420.599609375 601.16015625 503.400390625 678.440429688 604.139648438 678.440429688 c 0
 704.879882812 678.440429688 787.6796875 601.16015625 787.6796875 504.559570312 c 0
 787.6796875 407.959960938 704.879882812 330.6796875 604.139648438 330.6796875 c 0
 503.400390625 330.6796875 420.599609375 407.959960938 420.599609375 504.559570312 c 0
EndSplineSet
Substitution2: "Single Substitution lookup 60 subtable" abu.right
Substitution2: "Single Substitution lookup 58 subtable" abu.center
Substitution2: "Single Substitution lookup 56 subtable" abu.left
Substitution2: "Single Substitution lookup 54 subtable" abu.center
EndChar

StartChar: ybu
Encoding: 15 60239 16
Width: 1200
VWidth: 0
Flags: W
HStem: 0.5 21G<513.5 693.5> 425 180<100 513.5 693.5 1099>
VStem: 513.5 180<0.5 425 605 999.5>
AnchorPoint: "Above" 600 0 basechar 0
LayerCount: 2
Fore
SplineSet
513.5 605 m 1
 513.5 999.5 l 1
 693.5 999.5 l 1
 693.5 605 l 1
 1099 605 l 1
 1099 425 l 1
 693.5 425 l 1
 693.5 0.5 l 1
 513.5 0.5 l 1
 513.5 425 l 1
 100 425 l 1
 100 605 l 1
 513.5 605 l 1
EndSplineSet
Substitution2: "Single Substitution lookup 60 subtable" ybu.right
Substitution2: "Single Substitution lookup 58 subtable" ybu.center
Substitution2: "Single Substitution lookup 56 subtable" ybu.left
Substitution2: "Single Substitution lookup 54 subtable" ybu.center
EndChar

StartChar: ny
Encoding: 16 60240 17
Width: 1200
Flags: W
HStem: -10.4111 135.592<425.61 775.309> 875.456 136.568<427.405 771.093>
VStem: 84.1279 195.838<280.364 718.415> 914.99 196.908<276.781 717.088>
AnchorPoint: "Above" 600 0 basechar 0
LayerCount: 2
Fore
SplineSet
279.965820312 495.84375 m 0
 279.965820312 277.982421875 370.504882812 125.180664062 601.083984375 125.180664062 c 0
 829.647460938 125.180664062 914.990234375 279.252929688 914.990234375 495.84375 c 0
 914.990234375 713.211914062 830.130859375 875.456054688 601.083984375 875.456054688 c 0
 365.971679688 875.456054688 279.965820312 712.5 279.965820312 495.84375 c 0
601.083984375 1012.02441406 m 0
 856.543945312 1012.02441406 1009.26464844 882.396484375 1076.04785156 707.036132812 c 0
 1099.94824219 644.28125 1111.8984375 574.20703125 1111.8984375 496.819335938 c 0
 1111.8984375 256.2734375 1003.06640625 95.4560546875 815.114257812 25.193359375 c 0
 751.6171875 1.45703125 680.274414062 -10.4111328125 601.083984375 -10.4111328125 c 0
 344.036132812 -10.4111328125 186.346679688 110.135742188 118.978515625 286.11328125 c 0
 95.078125 348.544921875 84.1279296875 418.779296875 84.1279296875 496.819335938 c 0
 84.1279296875 737.561523438 197.551757812 905.125 385.446289062 975.931640625 c 0
 449.298828125 999.994140625 521.178710938 1012.02441406 601.083984375 1012.02441406 c 0
EndSplineSet
Substitution2: "Single Substitution lookup 62 subtable" ny.right
Substitution2: "Single Substitution lookup 31 subtable" ny.left
Substitution2: "Single Substitution lookup 18 subtable" ny.left
EndChar

StartChar: ty
Encoding: 17 60241 18
Width: 1200
Flags: W
HStem: -14 138<477.463 893.821> 873 139<480.16 906.121>
VStem: 84 189.775<312.747 678.707>
AnchorPoint: "Above" 600 0 basechar 0
LayerCount: 2
Fore
SplineSet
1120.51269531 142 m 1
 1016.53080324 39.674243123 850.839823584 -14 647.075195312 -14 c 0
 387.41747502 -14 207.69411922 103.483509451 126.924804688 286 c 0
 98.30859375 350.666992188 84 414.333007812 84 497 c 0
 84 756.4765625 230.696289062 904.119140625 428.03125 973 c 0
 502.518554688 999 588.158203125 1012 684.950195312 1012 c 0
 869.096679688 1012 1001.33398438 962.399414062 1105.36230469 880 c 1
 1046.02539062 816 l 2
 1033.31738281 802.16015625 1023.33886719 793 998.049804688 793 c 0
 985.424804688 793 971.537109375 797.166992188 956.387695312 805.5 c 0
 888.508789062 842.834960938 810.888671875 873 698.837890625 873 c 0
 451.805664062 873 273.775390625 742.935546875 273.775390625 497 c 0
 273.775390625 256.989257812 448.758722981 124 687.474609375 124 c 0
 817.295176518 124 895.239870336 159.961063408 968.380859375 208.5 c 0
 983.952148438 218.833007812 999.3125 224 1014.46289062 224 c 0
 1032.97949219 224 1047.28710938 218.333007812 1057.38769531 207 c 2
 1120.51269531 142 l 1
EndSplineSet
Substitution2: "Single Substitution lookup 62 subtable" ty.right
Substitution2: "Single Substitution lookup 28 subtable" ty.left
Substitution2: "Single Substitution lookup 15 subtable" ty.left
EndChar

StartChar: dy
Encoding: 18 60242 19
Width: 1200
Flags: W
HStem: -14 139<298.392 724.353> 873 138<310.692 727.05>
VStem: 930.737 189.775<318.477 684.253>
AnchorPoint: "Above" 600 0 basechar 0
LayerCount: 2
Fore
SplineSet
84 855 m 1
 187.981445312 957.326171875 353.672851562 1011 557.4375 1011 c 0
 817.095703125 1011 996.818359375 893.516601562 1077.58789062 711 c 0
 1106.20410156 646.333007812 1120.51269531 582.666992188 1120.51269531 500 c 0
 1120.51269531 240.5234375 973.81640625 93.880859375 776.481445312 25 c 0
 701.994140625 -1 616.354492188 -14 519.5625 -14 c 0
 335.416015625 -14 203.178710938 35.6005859375 99.150390625 118 c 1
 158.487304688 182 l 2
 171.1953125 195.83984375 181.173828125 205 206.462890625 205 c 0
 219.087890625 205 232.975585938 200.833007812 248.125 192.5 c 0
 316.00390625 155.165039062 393.624023438 125 505.674804688 125 c 0
 752.70703125 125 930.737304688 254.064453125 930.737304688 500 c 0
 930.737304688 740.010742188 755.75390625 873 517.038085938 873 c 0
 387.217773438 873 309.272460938 837.0390625 236.131835938 788.5 c 0
 220.560546875 778.166992188 205.200195312 773 190.049804688 773 c 0
 171.533203125 773 157.225585938 778.666992188 147.125 790 c 2
 84 855 l 1
EndSplineSet
Substitution2: "Single Substitution lookup 62 subtable" dy.right
Substitution2: "Single Substitution lookup 36 subtable" dy.left
Substitution2: "Single Substitution lookup 23 subtable" dy.left
EndChar

StartChar: sy
Encoding: 19 60243 20
Width: 1200
Flags: W
HStem: -10.5 149.5<437.537 773.264>
VStem: 83.9238 164<356.974 785.315> 953.332 158.296<345.382 782.737>
AnchorPoint: "Above" 600 0 basechar 0
LayerCount: 2
Fore
SplineSet
956.8671875 1013.75 m 1
 1060.58398438 905.772460938 1111.62792969 738.1875 1111.62792969 545 c 0
 1111.62792969 302.932617188 1005.60742188 115.192382812 817.704101562 30 c 0
 755.208984375 1.666015625 684.017578125 -10.5 604.127929688 -10.5 c 0
 436.94921875 -10.5 319.563476562 54.77734375 242.206054688 141.875 c 0
 149.631835938 246.109375 83.923828125 397.14453125 83.923828125 582.5 c 0
 83.923828125 759.370117188 148.016601562 906.07421875 230.489257812 1012.75 c 1
 317.0078125 954 l 2
 331.022460938 940.817382812 339.235351562 930.827148438 339.235351562 906.5 c 0
 339.235351562 871.466796875 315.229492188 843.1015625 300.579101562 809.625 c 0
 276.734375 755.138671875 247.923828125 678.034179688 247.923828125 596.25 c 0
 247.923828125 374.157226562 343.530273438 139 604.127929688 139 c 0
 858.328125 139 953.33203125 364.981445312 953.33203125 579 c 0
 953.33203125 703.744140625 918.3203125 782.022460938 869.669921875 857.125 c 0
 859.684570312 872.541015625 854.69140625 887.75 854.69140625 902.75 c 0
 854.69140625 921.083984375 860.16796875 935.25 871.120117188 945.25 c 2
 956.8671875 1013.75 l 1
EndSplineSet
Substitution2: "Single Substitution lookup 62 subtable" sy.right
Substitution2: "Single Substitution lookup 41 subtable" sy.left
EndChar

StartChar: zy
Encoding: 20 60244 21
Width: 1200
Flags: W
HStem: 864.25 149.5<422.287 758.014>
VStem: 83.9238 158.296<220.513 657.868> 947.628 164<217.935 646.276>
AnchorPoint: "Above" 600 0 basechar 0
LayerCount: 2
Fore
SplineSet
238.684570312 -10.5 m 1
 134.967773438 97.4775390625 83.923828125 265.0625 83.923828125 458.25 c 0
 83.923828125 700.317382812 189.944335938 888.057617188 377.84765625 973.25 c 0
 440.342773438 1001.58398438 511.534179688 1013.75 591.423828125 1013.75 c 0
 758.602539062 1013.75 875.98828125 948.47265625 953.345703125 861.375 c 0
 1045.91992188 757.140625 1111.62792969 606.10546875 1111.62792969 420.75 c 0
 1111.62792969 243.879882812 1047.53515625 97.17578125 965.0625 -9.5 c 1
 878.543945312 49.25 l 2
 864.529296875 62.4326171875 856.31640625 72.4228515625 856.31640625 96.75 c 0
 856.31640625 131.783203125 880.322265625 160.1484375 894.97265625 193.625 c 0
 918.817382812 248.111328125 947.627929688 325.215820312 947.627929688 407 c 0
 947.627929688 629.092773438 852.021484375 864.25 591.423828125 864.25 c 0
 337.223632812 864.25 242.219726562 638.268554688 242.219726562 424.25 c 0
 242.219726562 299.505859375 277.231445312 221.227539062 325.881835938 146.125 c 0
 335.8671875 130.708984375 340.860351562 115.5 340.860351562 100.5 c 0
 340.860351562 82.166015625 335.383789062 68 324.431640625 58 c 2
 238.684570312 -10.5 l 1
EndSplineSet
Substitution2: "Single Substitution lookup 62 subtable" zy.right
Substitution2: "Single Substitution lookup 46 subtable" zy.left
EndChar

StartChar: gy
Encoding: 21 60245 22
Width: 1200
Flags: W
AnchorPoint: "Above" 600 0 basechar 0
LayerCount: 2
Fore
SplineSet
100 999.5 m 1
 1113 586.5 l 1
 1113 426.5 l 1
 100 13.5 l 1
 100 158.5 l 2
 100 173.166992188 103.666992188 185.166992188 111 194.5 c 0
 118.333007812 203.833007812 127 210.166992188 137 213.5 c 2
 789 470.5 l 2
 813.666992188 478.5 837.666992188 485.5 861 491.5 c 0
 884.333007812 497.5 907.666992188 503.166992188 931 508.5 c 1
 907.666992188 513.833007812 884.333007812 519.5 861 525.5 c 0
 837.666992188 531.5 813.666992188 538.833007812 789 547.5 c 2
 137 807.5 l 2
 126.333007812 811.5 117.5 818.166992188 110.5 827.5 c 0
 103.5 836.833007812 100 860.5 100 860.5 c 1
 100 999.5 l 1
EndSplineSet
Substitution2: "Single Substitution lookup 62 subtable" gy.right
Substitution2: "Single Substitution lookup 37 subtable" gy.left
Substitution2: "Single Substitution lookup 24 subtable" gy.left
EndChar

StartChar: jy
Encoding: 22 60246 23
Width: 1200
Flags: W
HStem: 0 145<307.512 889.587>
AnchorPoint: "Above" 600 0 basechar 0
LayerCount: 2
Fore
SplineSet
38.3603515625 0 m 1
 511.245117188 1013 l 1
 694.4453125 1013 l 1
 1167.33007812 0 l 1
 1042.52539062 0 l 1
 1001.3046875 0 l 1
 197.514648438 0 l 1
 133.39453125 0 l 1
 38.3603515625 0 l 1
889.586854151 145 m 1
 644.065429688 689 l 2
 634.905273438 713.666992188 626.889648438 737.666992188 620.01953125 761 c 0
 613.150390625 784.333007812 606.661132812 807.666992188 600.5546875 831 c 1
 594.448242188 807.666992188 587.959960938 784.333007812 581.08984375 761 c 0
 574.219726562 737.666992188 565.823242188 713.666992188 555.900390625 689 c 2
 307.512497603 145 l 1
 889.586854151 145 l 1
EndSplineSet
Substitution2: "Single Substitution lookup 62 subtable" jy.right
Substitution2: "Single Substitution lookup 44 subtable" jy.left
EndChar

StartChar: yhy
Encoding: 23 60247 24
Width: 1200
VWidth: 4000
Flags: W
AnchorPoint: "Above" 600 0 basechar 0
LayerCount: 2
Fore
SplineSet
1021.91992188 999.48046875 m 2
 1009.12011719 999.48046875 996.959960938 996.919921875 984.799804688 991.16015625 c 0
 972.639648438 985.400390625 962.400390625 978.360351562 953.440429688 968.759765625 c 2
 264.48046875 255.240234375 l 1
 264.48046875 1000 l 1
 98.7197265625 1000 l 1
 98.7197265625 0.51953125 l 1
 177.599609375 0.51953125 l 2
 186.559570312 0.51953125 196.799804688 3.080078125 208.3203125 8.2001953125 c 0
 219.83984375 13.3203125 231.360351562 21 242.240234375 31.240234375 c 2
 931.6796875 748.599609375 l 1
 931.6796875 0 l 1
 1098.71972656 0 l 1
 1098.71972656 999.48046875 l 1
 1021.91992188 999.48046875 l 2
EndSplineSet
Substitution2: "Single Substitution lookup 62 subtable" yhy.right
EndChar

StartChar: uy
Encoding: 24 60248 25
Width: 1200
VWidth: 4000
Flags: W
HStem: 0.410156 21G<99.4102 287.09 936.609 1099.59> 828.95 170.46<287.09 936.609>
VStem: 99.4102 187.68<0.410156 828.95> 936.609 162.98<0.410156 828.95>
AnchorPoint: "Above" 600 0 basechar 0
LayerCount: 2
Fore
SplineSet
99.41015625 828.950195312 m 1
 99.41015625 899.650390625 l 1
 99.41015625 999.41015625 l 1
 1099.58984375 999.41015625 l 1
 1099.58984375 0.41015625 l 1
 936.609375 0.41015625 l 1
 936.609375 828.950195312 l 1
 287.08984375 828.950195312 l 1
 287.08984375 0.41015625 l 1
 99.41015625 0.41015625 l 1
 99.41015625 828.950195312 l 1
EndSplineSet
Substitution2: "Single Substitution lookup 62 subtable" uy.right
EndChar

StartChar: ly
Encoding: 25 60249 26
Width: 1200
Flags: W
HStem: -10.4951 125.135<321.661 809.718> 881.098 130.025<372.677 880.088>
VStem: 79.7441 203.187<675.503 813.448> 919.267 200.19<196.645 345.237>
AnchorPoint: "Above" 600 0 basechar 0
LayerCount: 2
Fore
SplineSet
559.150390625 114.639648438 m 0
 733.102539062 114.639648438 919.266601562 167.348632812 919.266601562 277.904296875 c 0
 919.266601562 370.092773438 731.935546875 402.704101562 619.82421875 425.036132812 c 0
 374.244140625 473.95703125 79.744140625 514.602539062 79.744140625 723.700195312 c 0
 79.744140625 864.72265625 224.409179688 948.984375 389.860351562 987.659179688 c 0
 456.776367188 1003.30078125 533.182617188 1011.12304688 619.076171875 1011.12304688 c 0
 827.8125 1011.12304688 984.081054688 963.7734375 1093.98828125 895.762695312 c 1
 1034.0625 832.216796875 l 2
 1022.07714844 817.877929688 1003.59960938 810.708984375 978.630859375 810.708984375 c 0
 963.649414062 810.708984375 946.669921875 814.293945312 927.694335938 821.462890625 c 0
 848.364257812 851.43359375 755.920898438 881.09765625 625.069335938 881.09765625 c 0
 495.864257812 881.09765625 346.361328125 848.9453125 303.155273438 793.600585938 c 0
 289.671875 776.329101562 282.930664062 757.591796875 282.930664062 737.387695312 c 0
 282.930664062 680.123046875 362.830078125 650.942382812 425.778320312 629.848632812 c 0
 504.2578125 603.549804688 634.225585938 586.796875 726.194335938 566.791015625 c 0
 917.236328125 525.235351562 1119.45703125 473.532226562 1119.45703125 308.209960938 c 0
 1119.45703125 148.731445312 977.233398438 56.6533203125 791.36328125 13.9453125 c 0
 720.451171875 -2.349609375 638.551757812 -10.4951171875 545.666992188 -10.4951171875 c 0
 329.086914062 -10.4951171875 191.180664062 35.0107421875 75.7353515625 102.811523438 c 1
 138.657226562 169.290039062 l 2
 153.354492188 184.875 172.3828125 195.685546875 209.0703125 195.685546875 c 0
 227.047851562 195.685546875 246.024414062 191.123046875 266 182 c 0
 350.4609375 143.418945312 407.750976562 114.639648438 559.150390625 114.639648438 c 0
EndSplineSet
Substitution2: "Single Substitution lookup 62 subtable" ly.right
Substitution2: "Single Substitution lookup 51 subtable" ly.left
Substitution2: "Single Substitution lookup 49 subtable" ly.left
Substitution2: "Single Substitution lookup 47 subtable" ly.left
Substitution2: "Single Substitution lookup 42 subtable" ly.left
Substitution2: "Single Substitution lookup 32 subtable" ly.left
Substitution2: "Single Substitution lookup 19 subtable" ly.left
Substitution2: "Single Substitution lookup 11 subtable" ly.left
Substitution2: "Single Substitution lookup 9 subtable" ly.left
Substitution2: "Single Substitution lookup 7 subtable" ly.left
Substitution2: "Single Substitution lookup 5 subtable" ly.left
EndChar

StartChar: aibu
Encoding: 26 60250 27
Width: 1200
VWidth: 0
Flags: W
HStem: 162 180<100 1099> 490.239 347.761<484.281 723.998>
VStem: 420.6 367.08<553.279 774.96>
AnchorPoint: "Above" 600 0 basechar 0
LayerCount: 2
Fore
SplineSet
100 342 m 1
 1099 342 l 1
 1099 162 l 1
 100 162 l 1
 100 342 l 1
420.599609375 664.119140625 m 0
 420.599609375 760.719726562 503.400390625 838 604.139648438 838 c 0
 704.879882812 838 787.6796875 760.719726562 787.6796875 664.119140625 c 0
 787.6796875 567.51953125 704.879882812 490.239257812 604.139648438 490.239257812 c 0
 503.400390625 490.239257812 420.599609375 567.51953125 420.599609375 664.119140625 c 0
EndSplineSet
Substitution2: "Single Substitution lookup 60 subtable" aibu.right
Substitution2: "Single Substitution lookup 58 subtable" aibu.center
Substitution2: "Single Substitution lookup 56 subtable" aibu.left
Substitution2: "Single Substitution lookup 54 subtable" aibu.center
Ligature2: "diphthongs subtable" abu ibu
EndChar

StartChar: eibu
Encoding: 27 60251 28
Width: 1200
VWidth: 0
Flags: W
HStem: 90 180<100 1099> 430 180<100 1099> 756 180<100 1099>
AnchorPoint: "Above" 600 0 basechar 0
LayerCount: 2
Fore
SplineSet
100 270 m 1
 1099 270 l 1
 1099 90 l 1
 100 90 l 1
 100 270 l 1
100 610 m 1
 1099 610 l 1
 1099 430 l 1
 100 430 l 1
 100 610 l 1
100 936 m 1
 1099 936 l 1
 1099 756 l 1
 100 756 l 1
 100 936 l 1
EndSplineSet
Substitution2: "Single Substitution lookup 60 subtable" eibu.right
Substitution2: "Single Substitution lookup 58 subtable" eibu.center
Substitution2: "Single Substitution lookup 56 subtable" eibu.left
Substitution2: "Single Substitution lookup 54 subtable" eibu.center
Ligature2: "diphthongs subtable" ebu ibu
EndChar

StartChar: oibu
Encoding: 28 60252 29
Width: 1200
VWidth: 0
Flags: W
HStem: 1 21G<507 687> 236 190<100 507 687 1099> 606 190<100 507 687 1099>
VStem: 507 180<1 236 426 606 796 1000>
AnchorPoint: "Above" 600 0 basechar 0
LayerCount: 2
Fore
SplineSet
507 796 m 1
 507 1000 l 1
 687 1000 l 1
 687 796 l 1
 1099 796 l 1
 1099 606 l 1
 687 606 l 1
 687 426 l 1
 1099 426 l 1
 1099 236 l 1
 687 236 l 1
 687 1 l 1
 507 1 l 1
 507 236 l 1
 100 236 l 1
 100 426 l 1
 507 426 l 1
 507 606 l 1
 100 606 l 1
 100 796 l 1
 507 796 l 1
EndSplineSet
Substitution2: "Single Substitution lookup 60 subtable" oibu.right
Substitution2: "Single Substitution lookup 58 subtable" oibu.center
Substitution2: "Single Substitution lookup 56 subtable" oibu.left
Substitution2: "Single Substitution lookup 54 subtable" oibu.center
Ligature2: "diphthongs subtable" obu ibu
EndChar

StartChar: aubu
Encoding: 29 60253 30
Width: 1200
VWidth: 0
Flags: W
HStem: 1 21G<781 961> 330.68 347.761<345.281 584.998>
VStem: 281.6 367.08<393.72 615.4> 781 180<1 1000>
AnchorPoint: "Above" 600 0 basechar 0
LayerCount: 2
Fore
SplineSet
281.599609375 504.559570312 m 0
 281.599609375 601.16015625 364.400390625 678.440429688 465.139648438 678.440429688 c 0
 565.879882812 678.440429688 648.6796875 601.16015625 648.6796875 504.559570312 c 0
 648.6796875 407.959960938 565.879882812 330.6796875 465.139648438 330.6796875 c 0
 364.400390625 330.6796875 281.599609375 407.959960938 281.599609375 504.559570312 c 0
961 1000 m 1
 961 1 l 1
 781 1 l 1
 781 1000 l 1
 961 1000 l 1
EndSplineSet
Substitution2: "Single Substitution lookup 60 subtable" aubu.right
Substitution2: "Single Substitution lookup 58 subtable" aubu.center
Substitution2: "Single Substitution lookup 56 subtable" aubu.left
Substitution2: "Single Substitution lookup 54 subtable" aubu.center
Ligature2: "diphthongs subtable" abu ubu
EndChar

